<?xml version="1.0" encoding="UTF-8" standalone="no"?>
<svg
   version="1.1"
   id="Layer_1"
   x="0px"
   y="0px"
   viewBox="0 0 98.94 122.88"
   style="enable-background:new 0 0 98.94 122.88"
   xml:space="preserve"
   sodipodi:docname="youtube-shorts-icon.svg"
   inkscape:version="1.2.1 (9c6d41e, 2022-07-14)"
   xmlns:inkscape="http://www.inkscape.org/namespaces/inkscape"
   xmlns:sodipodi="http://sodipodi.sourceforge.net/DTD/sodipodi-0.dtd"
   xmlns="http://www.w3.org/2000/svg"
   xmlns:svg="http://www.w3.org/2000/svg"><defs
     id="defs11" /><sodipodi:namedview
     id="namedview9"
     pagecolor="#ffffff"
     bordercolor="#000000"
     borderopacity="0.25"
     inkscape:showpageshadow="2"
     inkscape:pageopacity="0.0"
     inkscape:pagecheckerboard="0"
     inkscape:deskcolor="#d1d1d1"
     showgrid="false"
     inkscape:zoom="1.1962891"
     inkscape:cx="16.300408"
     inkscape:cy="48.483264"
     inkscape:window-width="1366"
     inkscape:window-height="738"
     inkscape:window-x="0"
     inkscape:window-y="30"
     inkscape:window-maximized="1"
     inkscape:current-layer="Layer_1" /><style
     type="text/css"
     id="style2"><![CDATA[
	.st0{fill-rule:evenodd;clip-rule:evenodd;fill:#F40407;}
]]></style><g
     id="g6"
     style="fill:#363636;stroke:none;stroke-width:5.205;stroke-dasharray:none;fill-opacity:1"
     transform="translate(0.00403577)"
     inkscape:export-filename="g6.svg"
     inkscape:export-xdpi="96"
     inkscape:export-ydpi="96"><path
       class="st0"
       d="m 63.49,2.71 c 11.59,-6.04 25.94,-1.64 32.04,9.83 6.1,11.47 1.65,25.66 -9.94,31.7 l -9.53,5.01 c 8.21,0.3 16.04,4.81 20.14,12.52 6.1,11.47 1.66,25.66 -9.94,31.7 l -50.82,26.7 C 23.85,126.21 9.5,121.81 3.4,110.34 -2.7,98.87 1.75,84.68 13.34,78.64 l 9.53,-5.01 C 14.66,73.33 6.83,68.82 2.73,61.11 -3.37,49.64 1.08,35.45 12.67,29.41 Z M 36.06,42.53 66.82,61.52 36.06,80.42 Z"
       id="path4"
       style="fill:#363636;stroke:none;stroke-width:5.205;stroke-dasharray:none;fill-opacity:1" /></g></svg>
